<svg width="101" height="101" viewBox="0 0 101 101" fill="none" xmlns="http://www.w3.org/2000/svg">
<path d="M84.6481 0.600098H16.7513C7.88625 0.600098 0.699707 7.78664 0.699707 16.6517V84.5485C0.699707 93.4136 7.88625 100.6 16.7513 100.6H84.6481C93.5132 100.6 100.7 93.4136 100.7 84.5485V16.6517C100.7 7.78664 93.5132 0.600098 84.6481 0.600098Z" fill="#42C0F0"/>
<path d="M26.8226 82.0259C25.9184 82.0259 25.186 81.7413 24.6252 81.1722C24.0645 80.6031 23.7838 79.8452 23.7833 78.8987V78.722C23.7737 78.1344 23.9002 77.5526 24.1529 77.022C24.3789 76.5441 24.736 76.1401 25.1825 75.8572C25.6252 75.5797 26.1383 75.4352 26.6608 75.441C27.5255 75.441 28.1935 75.7167 28.6645 76.2681C29.1356 76.8195 29.3692 77.6005 29.3652 78.6111V79.1862H25.2209C25.2638 79.71 25.4387 80.1246 25.7457 80.4301C25.8978 80.581 26.0789 80.6993 26.2782 80.778C26.4774 80.8566 26.6906 80.894 26.9047 80.8876C27.5576 80.8876 28.0895 80.6235 28.5004 80.0953L29.2691 80.8285C29.0149 81.2098 28.6633 81.5161 28.2506 81.7155C27.8051 81.9282 27.3163 82.0345 26.8226 82.0259V82.0259ZM26.6519 76.5874C26.4735 76.581 26.2959 76.6145 26.1321 76.6855C25.9683 76.7565 25.8224 76.8631 25.7051 76.9976C25.4641 77.2721 25.3104 77.6535 25.2439 78.1418H27.9609V78.0361C27.9298 77.5596 27.803 77.1989 27.5802 76.954C27.3575 76.7091 27.0481 76.5869 26.6519 76.5874V76.5874Z" fill="white"/>
<path d="M33.2405 78.852H30.1605V77.702H33.2405V78.852Z" fill="white"/>
<path d="M35.7572 75.5607L35.7986 76.226C36.242 75.7056 36.8521 75.4454 37.6286 75.4454C38.4772 75.4454 39.0581 75.7702 39.3715 76.4196C39.8327 75.7702 40.4819 75.4454 41.3191 75.4454C42.0193 75.4454 42.5404 75.6391 42.8823 76.0264C43.2243 76.4137 43.3995 76.9845 43.4079 77.7389V81.9106H41.9821V77.7803C41.9821 77.3773 41.8941 77.0816 41.7182 76.8934C41.5423 76.7052 41.2508 76.6113 40.8438 76.6118C40.5558 76.5995 40.2731 76.6925 40.0485 76.8734C39.8399 77.0529 39.6898 77.2908 39.6176 77.5564L39.6235 81.9098H38.1978V77.7315C38.1786 76.9845 37.7972 76.6108 37.0536 76.6103C36.483 76.6103 36.0782 76.8431 35.8392 77.3088V81.9083H34.4142V75.5607H35.7572Z" fill="white"/>
<path d="M51.4976 82.0258C50.5077 82.0258 49.7392 81.711 49.1923 81.0812C48.9199 81.3949 48.5729 81.6348 48.1833 81.779C47.7318 81.9495 47.2521 82.0333 46.7694 82.0258C46.0795 82.0258 45.5397 81.8534 45.15 81.5085C44.7602 81.1635 44.5646 80.6863 44.5631 80.0768C44.5631 79.4598 44.7959 78.9829 45.2616 78.6458C45.7272 78.3088 46.4156 78.1405 47.3267 78.141H48.4472V77.7249C48.4472 77.3686 48.3543 77.0897 48.1686 76.8882C47.9828 76.6866 47.7177 76.5861 47.3733 76.5866C47.018 76.5866 46.7275 76.6736 46.5018 76.8475C46.3977 76.9206 46.3127 77.0176 46.2541 77.1304C46.1954 77.2433 46.1648 77.3686 46.1648 77.4957L44.7449 77.3841C44.7449 76.8135 44.9913 76.3471 45.4841 75.985C45.9768 75.6228 46.6095 75.442 47.3821 75.4425C48.2543 75.4425 48.9074 75.7026 49.3416 76.223C49.854 75.6942 50.5012 75.4341 51.2832 75.4425C52.1125 75.4425 52.76 75.6957 53.2257 76.2023C53.6913 76.7088 53.9239 77.4216 53.9234 78.3406V79.144H49.8493C49.8843 79.686 50.0504 80.1125 50.3475 80.4234C50.6446 80.7344 51.0553 80.8888 51.5796 80.8869C52.0779 80.8958 52.5704 80.7786 53.0113 80.5461L53.3691 80.3473L53.7977 81.3207C53.4922 81.5561 53.1448 81.7317 52.7741 81.8381C52.3603 81.9639 51.93 82.0271 51.4976 82.0258V82.0258ZM47.0451 80.946C47.3007 80.9394 47.5522 80.8805 47.7842 80.773C48.0294 80.6719 48.2546 80.528 48.4494 80.348V79.1218H47.2971C46.8906 79.1292 46.5703 79.226 46.3363 79.4123C46.2272 79.491 46.1384 79.5945 46.0772 79.7143C46.016 79.8341 45.9842 79.9667 45.9844 80.1012C45.9803 80.2174 46.0027 80.3331 46.05 80.4394C46.0973 80.5457 46.1681 80.6398 46.2572 80.7146C46.438 80.8689 46.7007 80.946 47.0451 80.946V80.946ZM51.2862 76.5851C51.1076 76.5798 50.93 76.6131 50.7655 76.6829C50.6011 76.7527 50.4537 76.8573 50.3335 76.9895C50.0841 77.26 49.9287 77.6433 49.8671 78.1395H52.5183V77.9636C52.5183 77.5201 52.4119 77.1799 52.199 76.9429C51.9861 76.7059 51.6819 76.5874 51.2862 76.5874V76.5851Z" fill="white"/>
<path d="M58.3389 76.8631C58.1469 76.8314 57.9526 76.8156 57.7579 76.8158C57.1045 76.8158 56.6645 77.0661 56.4379 77.5667V81.9083H55.0128V75.5607H56.3728L56.4083 76.2703C56.7532 75.7189 57.2302 75.4432 57.8392 75.4432C58.0112 75.4378 58.1826 75.4657 58.3441 75.5253L58.3389 76.8631Z" fill="white"/>
<path d="M61.3007 79.1861L60.6672 79.8373V81.9069H59.2415V72.8969H60.6672V78.0952L61.1107 77.5379L62.8654 75.5607H64.5779L62.2223 78.2046L64.8329 81.9069H63.1839L61.3007 79.1861Z" fill="white"/>
<path d="M68.1886 82.0259C67.2854 82.0259 66.5529 81.7413 65.9911 81.1722C65.4294 80.6031 65.1488 79.8452 65.1493 78.8986V78.722C65.14 78.1344 65.2665 77.5527 65.5188 77.022C65.7438 76.5456 66.0989 76.1425 66.5433 75.8593C66.986 75.5819 67.4991 75.4375 68.0215 75.4432C68.8858 75.4432 69.5535 75.7189 70.0246 76.2703C70.4956 76.8217 70.7314 77.602 70.7319 78.6111V79.1862H66.5869C66.6298 79.7099 66.8047 80.1246 67.1117 80.4301C67.2637 80.581 67.4449 80.6993 67.6441 80.778C67.8434 80.8566 68.0565 80.8939 68.2706 80.8876C68.924 80.8876 69.4559 80.6235 69.8664 80.0953L70.6351 80.8285C70.3812 81.2098 70.0297 81.516 69.6173 81.7154C69.1715 81.9281 68.6824 82.0343 68.1886 82.0259V82.0259ZM68.0186 76.5874C67.8401 76.581 67.6624 76.6145 67.4985 76.6855C67.3345 76.7564 67.1885 76.8631 67.071 76.9976C66.8301 77.2721 66.6766 77.6535 66.6105 78.1418H69.3268V78.0361C69.2953 77.5596 69.1682 77.1989 68.9454 76.954C68.7227 76.7091 68.4147 76.5869 68.0215 76.5874H68.0186Z" fill="white"/>
<path d="M73.627 74.0175V75.5608H74.7475V76.6162H73.627V80.164C73.627 80.4065 73.6748 80.5814 73.7704 80.6888C73.8665 80.7967 74.0372 80.8499 74.2878 80.8499C74.4555 80.8497 74.6227 80.8301 74.786 80.7915V81.8943C74.4807 81.9818 74.1649 82.0273 73.8473 82.0296C72.7529 82.0296 72.2054 81.4252 72.2049 80.2165V76.6199H71.1569V75.5645H72.2012V74.0175H73.627Z" fill="white"/>
<path d="M21.6665 44.7532H13.1355C12.9888 44.7532 12.8447 44.7141 12.7181 44.64C12.5915 44.5659 12.4868 44.4594 12.4149 44.3315C12.343 44.2036 12.3064 44.0589 12.3088 43.9122C12.3113 43.7655 12.3528 43.6221 12.4289 43.4967C13.6854 41.4456 16.7536 37.1801 22.5927 32.9132L22.6037 32.9043C22.8018 32.7299 28.955 27.3609 39.798 25.1487C39.798 25.1487 54.8437 21.6008 69.3823 28.3476C69.3823 28.3476 81.5446 34.4188 86.6268 43.5278C86.6964 43.6539 86.7318 43.7959 86.7297 43.94C86.7275 44.084 86.6879 44.2249 86.6146 44.3489C86.5413 44.4729 86.4369 44.5756 86.3117 44.6469C86.1866 44.7182 86.045 44.7556 85.901 44.7554H82.2645C81.6825 44.7568 81.1105 44.604 80.6068 44.3125C80.103 44.0211 79.6855 43.6014 79.3967 43.0961C78.3272 41.2135 75.962 37.9503 71.1244 34.4845C71.1244 34.4845 62.382 28.029 48.6668 29.3912C48.6668 29.3912 40.8491 29.9611 34.3891 34.0115L34.3751 34.0189C34.194 34.1061 30.2692 36.0522 24.5558 43.3496C24.2123 43.7875 23.7736 44.1414 23.273 44.3846C22.7724 44.6278 22.2231 44.7539 21.6665 44.7532Z" fill="white"/>
<path d="M77.3174 48.1133H85.8477C85.9944 48.1134 86.1385 48.1524 86.2651 48.2265C86.3917 48.3006 86.4964 48.4071 86.5683 48.535C86.6402 48.6629 86.6768 48.8076 86.6744 48.9543C86.6719 49.101 86.6304 49.2444 86.5543 49.3698C85.2977 51.4202 82.2311 55.6849 76.395 59.9504C76.3888 59.9547 76.3828 59.9594 76.3772 59.9645C76.1296 60.1862 69.9823 65.5153 59.1852 67.7179C59.1852 67.7179 44.1403 71.2657 29.6009 64.519C29.6009 64.519 17.4386 58.4485 12.3564 49.3388C12.2868 49.2127 12.2514 49.0706 12.2535 48.9266C12.2557 48.7826 12.2953 48.6416 12.3686 48.5176C12.4419 48.3936 12.5463 48.2909 12.6715 48.2196C12.7966 48.1483 12.9382 48.1109 13.0822 48.1111H16.7195C17.3012 48.1095 17.873 48.2621 18.3766 48.5533C18.8802 48.8446 19.2977 49.264 19.5865 49.769C20.6568 51.6515 23.0212 54.9155 27.8588 58.3805C27.8588 58.3805 36.6012 64.8353 50.3164 63.4738C50.3164 63.4738 58.1297 62.904 64.5889 58.8572L64.6126 58.8439C64.8454 58.7309 68.7517 56.7603 74.4274 49.5147C74.7715 49.0774 75.2104 48.724 75.7111 48.4813C76.2117 48.2385 76.761 48.1127 77.3174 48.1133Z" fill="white"/>
<path d="M58.1313 50.0476C57.6607 50.0496 57.1975 50.1648 56.7808 50.3835C56.3642 50.6022 56.0062 50.918 55.7372 51.3041C55.0573 52.2798 53.8384 53.5725 51.8938 54.1934C51.8938 54.1934 47.1974 55.8934 43.7427 51.9405L61.5268 43.958C61.8671 43.7995 62.1353 43.5188 62.278 43.1716C62.4208 42.8244 62.4275 42.4362 62.297 42.0843C61.292 39.4555 59.4909 37.2063 57.1454 35.6508C54.7999 34.0954 52.0272 33.3114 49.2145 33.4084C42.1056 33.6457 36.3463 39.4626 36.1748 46.5737C36.0953 49.8255 37.192 52.9967 39.2634 55.5046C41.3348 58.0125 44.2417 59.6886 47.4498 60.2249C50.658 60.7612 53.952 60.1218 56.7265 58.424C59.5009 56.7262 61.5695 54.0841 62.552 50.9834C62.5857 50.8729 62.5931 50.756 62.5735 50.6422C62.5539 50.5284 62.5079 50.4207 62.4392 50.3279C62.3705 50.235 62.281 50.1596 62.1779 50.1076C62.0748 50.0556 61.9609 50.0284 61.8454 50.0284L58.1313 50.0476ZM41.9245 46.9965C41.9246 45.4376 42.4055 43.9166 43.3015 42.6409C44.1975 41.3652 45.4652 40.3968 46.9316 39.8678C48.3981 39.3388 49.992 39.2749 51.4961 39.6848C53.0002 40.0946 54.3413 40.9583 55.3366 42.1582L42.0146 48.1695C41.9546 47.7814 41.9244 47.3892 41.9245 46.9965V46.9965Z" fill="white"/>
</svg>
